<?xml version="1.0" standalone="no"?>
<!DOCTYPE svg PUBLIC "-//W3C//DTD SVG 20010904//EN"
 "http://www.w3.org/TR/2001/REC-SVG-20010904/DTD/svg10.dtd">
<svg version="1.0" xmlns="http://www.w3.org/2000/svg"
 width="1024.000000pt" height="1024.000000pt" viewBox="0 0 1024.000000 1024.000000"
 preserveAspectRatio="xMidYMid meet">
<metadata>
Created by potrace 1.11, written by Peter Selinger 2001-2013
</metadata>
<g transform="translate(0.000000,1024.000000) scale(0.100000,-0.100000)"
fill="#000000" stroke="none">
<path d="M2560 9297 c0 -29 -5 -58 -12 -65 -8 -8 -63 -12 -179 -12 -191 0
-200 -3 -197 -71 1 -26 -4 -44 -13 -50 -8 -5 -59 -9 -115 -9 -113 0 -124 -6
-124 -61 0 -61 -16 -69 -134 -69 -115 0 -126 -5 -126 -61 0 -48 -21 -69 -69
-69 -47 0 -59 -13 -63 -70 l-3 -45 -45 -3 c-55 -4 -80 -25 -80 -68 0 -55 19
-64 129 -64 110 0 127 9 123 61 -1 16 2 38 8 49 10 19 24 20 508 20 374 0 501
-3 510 -12 7 -7 12 -31 12 -54 0 -24 6 -46 13 -51 6 -4 62 -10 122 -13 l110
-5 3 -45 c4 -56 16 -70 59 -70 68 0 73 -8 73 -128 0 -71 4 -112 12 -120 7 -7
30 -12 53 -12 23 0 46 -5 53 -12 8 -8 12 -63 12 -183 0 -120 -4 -175 -12 -183
-7 -7 -30 -12 -53 -12 -52 0 -65 -13 -65 -65 0 -52 -13 -65 -67 -65 -58 0 -67
-19 -60 -133 6 -121 1 -127 -129 -127 -119 0 -134 7 -134 64 0 54 -16 68 -72
64 l-43 -3 -5 -53 c-6 -61 -18 -72 -77 -72 -46 0 -49 -5 -55 -80 -3 -34 -4
-35 -55 -40 -28 -3 -55 -9 -60 -13 -4 -5 -10 -32 -13 -60 l-5 -52 -110 -3
c-125 -3 -151 -15 -141 -65 9 -47 -8 -67 -57 -67 -52 0 -67 -13 -67 -58 0 -55
-15 -72 -63 -72 -24 0 -48 -5 -55 -12 -8 -8 -12 -48 -12 -114 0 -120 -8 -134
-75 -134 -30 0 -45 -5 -49 -16 -12 -31 -7 -459 6 -472 7 -7 30 -12 53 -12 23
0 46 -5 53 -12 17 -17 17 -479 0 -496 -7 -7 -30 -12 -53 -12 -23 0 -46 -5 -53
-12 -8 -8 -12 -49 -12 -120 0 -130 2 -128 -139 -128 -92 0 -101 -2 -111 -21
-7 -11 -9 -32 -6 -45 9 -35 -24 -64 -74 -64 -43 0 -66 -25 -55 -60 3 -11 1
-28 -5 -40 -10 -19 -20 -20 -176 -20 -95 0 -174 -4 -185 -10 -14 -8 -19 -21
-19 -53 0 -24 -5 -48 -12 -55 -9 -9 -106 -12 -374 -12 -325 0 -364 2 -379 17
-12 11 -15 25 -11 46 9 44 -16 67 -71 67 l-43 0 0 -125 0 -125 109 0 c125 0
141 -8 141 -69 0 -56 11 -61 126 -61 117 0 136 -9 132 -65 -4 -68 -35 -65 577
-65 466 0 554 -2 564 -14 7 -8 11 -36 9 -63 l-3 -48 -53 -5 c-31 -3 -57 -12
-62 -20 -6 -8 -10 -89 -10 -180 0 -116 -4 -170 -12 -178 -7 -7 -31 -12 -55
-12 -59 0 -67 -19 -59 -132 5 -80 4 -90 -14 -108 -13 -13 -33 -20 -60 -20 -43
0 -63 -21 -54 -57 3 -12 1 -30 -5 -42 -11 -19 -20 -21 -119 -21 -71 0 -112 -4
-120 -12 -7 -7 -12 -30 -12 -53 0 -52 -13 -65 -65 -65 -52 0 -65 -13 -65 -66
0 -23 -6 -46 -13 -52 -7 -6 -62 -13 -122 -14 -109 -3 -110 -3 -119 -30 -6 -18
-6 -38 0 -55 l9 -28 364 -3 c260 -2 368 1 377 9 8 7 14 30 14 55 0 57 14 64
139 64 112 0 123 7 114 66 -8 50 22 64 132 64 109 0 135 -13 135 -66 0 -57
-14 -74 -63 -74 -24 0 -48 -5 -55 -12 -9 -9 -12 -77 -12 -245 0 -260 -2 -253
73 -253 43 0 55 -14 59 -70 l3 -45 48 -3 c37 -2 51 -8 63 -27 9 -14 13 -33 9
-44 -12 -37 11 -61 59 -61 51 0 71 -18 68 -61 -1 -16 2 -38 8 -49 10 -19 22
-20 183 -20 121 0 177 -4 185 -12 7 -7 12 -30 12 -53 0 -52 13 -65 67 -65 56
0 63 -15 63 -130 0 -131 1 -130 -128 -130 -71 0 -112 -4 -120 -12 -7 -7 -12
-31 -12 -54 0 -23 -6 -46 -13 -53 -8 -6 -80 -12 -187 -13 l-175 -3 -9 -28 c-6
-17 -6 -37 0 -55 8 -24 15 -27 57 -30 53 -3 80 -30 71 -68 -3 -12 -1 -32 6
-43 10 -21 17 -21 308 -21 219 0 301 3 310 12 7 7 12 30 12 53 0 23 5 46 12
53 8 8 49 12 119 12 122 0 132 -5 131 -72 -1 -50 -20 -68 -73 -68 -55 0 -61
-14 -57 -130 3 -113 0 -120 -64 -120 -61 0 -63 -7 -62 -192 1 -91 5 -171 8
-177 4 -6 27 -11 50 -11 66 0 72 -13 68 -147 l-4 -113 60 0 c54 0 60 2 66 23
3 12 3 32 0 44 -11 39 12 63 60 63 67 0 69 7 67 193 -2 187 0 193 79 199 l45
3 3 45 c4 59 15 70 72 70 55 0 75 -17 67 -57 -8 -44 8 -63 53 -63 50 0 85 -30
76 -66 -4 -13 -2 -33 4 -44 10 -18 21 -20 111 -20 124 0 139 -7 139 -63 0 -52
13 -67 60 -67 54 0 60 12 60 125 0 118 8 132 80 137 l45 3 3 45 c4 59 15 70
73 70 60 0 71 -16 67 -103 -1 -34 1 -68 6 -75 4 -6 27 -12 51 -12 39 0 46 4
60 30 9 17 17 31 18 32 1 1 83 4 182 7 l180 6 3 109 c1 61 8 116 14 123 15 18
608 19 626 1 7 -7 12 -31 12 -55 0 -55 15 -63 125 -63 113 0 125 7 125 70 0
39 4 52 19 60 11 6 89 10 180 10 149 0 163 -2 181 -20 16 -16 19 -28 15 -54
-4 -21 -2 -36 7 -43 8 -7 106 -12 276 -15 l263 -3 29 -34 28 -35 92 3 c105 3
130 -9 130 -64 0 -60 16 -69 129 -70 95 -1 102 -3 129 -28 25 -24 36 -27 98
-27 41 0 75 5 82 12 7 7 12 31 12 55 0 56 15 63 130 63 115 0 130 -7 130 -63
0 -53 13 -67 61 -67 48 0 69 -21 69 -69 0 -47 14 -61 61 -61 48 0 69 -21 69
-69 0 -47 14 -61 61 -61 46 0 73 -23 65 -56 -4 -13 -4 -35 0 -49 6 -23 11 -25
65 -25 l59 0 0 113 c0 125 -5 137 -58 137 -18 0 -42 5 -53 10 -18 10 -19 24
-19 313 0 222 3 306 12 315 9 9 77 12 243 12 166 0 234 3 243 12 7 7 12 30 12
53 0 23 5 46 12 53 8 8 49 12 118 12 69 0 110 4 118 12 8 8 12 61 12 174 0
186 -3 194 -75 194 -30 0 -45 5 -49 16 -10 27 -7 89 6 102 8 8 62 12 178 12
151 0 169 2 184 19 11 12 15 27 11 44 -4 14 -2 35 5 46 10 19 19 21 118 21 71
0 112 4 120 12 7 7 12 30 12 53 0 23 5 46 12 53 7 7 30 12 53 12 52 0 65 13
65 67 0 48 17 63 73 63 55 0 59 11 56 189 -3 181 0 191 62 191 59 0 66 14 65
127 -1 54 -6 104 -10 111 -4 7 -27 12 -51 12 -49 0 -71 -23 -61 -64 10 -39
-19 -66 -69 -66 -49 0 -66 -18 -58 -60 2 -14 -2 -34 -11 -45 -12 -17 -29 -21
-128 -25 l-113 -5 -3 -35 c-6 -76 -9 -80 -56 -80 -55 0 -76 -19 -76 -69 0 -57
-12 -62 -141 -59 l-114 3 -6 100 c-7 130 1 148 64 156 54 6 70 21 63 60 -3 14
2 36 10 48 14 19 24 21 118 21 66 0 106 4 114 12 9 9 12 75 12 236 0 135 4
231 10 243 10 17 22 19 118 19 71 0 112 4 120 12 7 7 12 30 12 53 0 23 5 46
12 53 8 8 49 12 120 12 99 0 108 2 118 21 7 11 9 31 6 44 -4 14 1 31 12 44 15
18 29 21 127 23 l110 3 5 53 c6 61 18 72 76 72 45 0 54 10 54 60 0 51 9 60 55
60 54 0 75 19 75 69 0 49 14 61 72 61 l48 0 0 125 0 125 -433 0 c-323 0 -436
3 -445 12 -7 7 -12 30 -12 53 0 52 -13 65 -65 65 -52 0 -65 13 -65 65 0 52
-13 65 -67 65 -48 0 -63 17 -63 72 0 45 15 58 65 58 52 0 65 13 65 65 0 52 13
65 65 65 52 0 65 13 65 65 0 52 13 65 65 65 52 0 65 13 65 65 0 52 13 65 67
65 56 0 63 14 56 120 -7 111 2 130 62 130 34 0 47 5 59 22 20 28 20 58 0 86
-15 21 -21 22 -179 22 -157 0 -164 -1 -179 -22 -9 -12 -13 -32 -10 -44 3 -12
1 -32 -6 -43 -10 -19 -19 -21 -123 -21 -75 0 -117 4 -125 12 -7 7 -12 31 -12
55 0 49 -17 63 -74 63 -25 0 -38 6 -46 20 -8 14 -11 115 -9 305 1 217 -1 288
-11 300 -8 9 -29 15 -56 15 -29 0 -46 5 -52 16 -5 8 -7 84 -4 168 5 182 1 196
-61 196 -24 0 -48 5 -55 12 -8 8 -12 48 -12 114 0 120 -8 134 -75 134 -47 0
-55 9 -55 65 0 46 -22 65 -76 65 -47 0 -50 4 -56 80 -3 34 -4 35 -55 40 -28 3
-55 9 -60 13 -4 5 -10 32 -13 60 l-5 52 -53 5 c-59 6 -75 21 -67 63 8 47 -9
67 -58 67 -58 0 -71 11 -69 57 2 55 -9 67 -70 73 l-53 5 -5 53 c-6 61 -18 72
-76 72 -45 0 -54 10 -54 60 0 50 -9 60 -54 60 -58 0 -70 11 -76 72 l-5 53
-110 3 c-98 2 -112 5 -127 23 -11 13 -16 30 -12 44 3 13 1 33 -6 44 -10 20
-18 21 -183 21 -121 0 -177 4 -185 12 -7 7 -12 30 -12 53 0 23 -5 46 -12 53
-8 8 -64 12 -185 12 -172 0 -174 0 -182 23 -5 13 -7 34 -4 48 3 16 -2 32 -12
42 -15 15 -50 17 -315 17 -293 0 -300 0 -310 21 -7 11 -9 31 -6 43 3 12 -1 32
-10 44 -15 21 -22 22 -179 22 -156 0 -165 -1 -179 -21 -9 -14 -13 -33 -9 -50
11 -55 -3 -59 -184 -59 -94 0 -173 -4 -184 -10 -14 -8 -19 -21 -19 -53 0 -24
-5 -48 -12 -55 -9 -9 -91 -12 -308 -12 -217 0 -299 -3 -308 -12 -7 -7 -12 -30
-12 -53 0 -23 -5 -46 -12 -53 -9 -9 -76 -12 -239 -12 -125 0 -234 -3 -243 -6
-11 -4 -16 -19 -16 -49 0 -75 0 -75 -259 -75 -170 0 -232 3 -245 13 -16 12
-18 36 -16 306 0 209 -3 297 -11 307 -6 8 -27 14 -46 14 -56 0 -73 15 -73 63
0 54 -13 67 -65 67 -52 0 -65 13 -65 65 0 52 -13 65 -67 65 -48 0 -63 17 -63
72 0 53 -12 58 -131 58 -70 0 -110 4 -115 11 -4 7 -6 36 -5 65 l2 54 -191 0
-190 0 0 -53z m346 -146 c-8 -49 -22 -60 -37 -28 -12 27 -13 27 -120 27 -106
0 -109 -1 -126 -26 l-17 -26 -13 37 c-7 20 -11 40 -9 44 2 3 77 6 166 6 l162
0 -6 -34z m-367 -107 c1 -1 0 -7 -4 -13 -4 -7 -58 -11 -145 -11 -133 0 -140
-1 -151 -22 -11 -21 -12 -21 -25 -3 -8 10 -14 28 -14 40 0 21 2 21 168 17 92
-2 169 -6 171 -8z m623 -19 c-5 -43 -19 -54 -38 -27 -13 19 -24 22 -79 22 -35
0 -70 3 -79 6 -36 14 -11 23 67 27 136 6 132 6 129 -28z m-995 -107 c24 -6
143 -11 269 -12 172 -1 228 -4 231 -13 4 -10 -68 -13 -331 -15 -185 -1 -348
-2 -363 -2 -22 -1 -29 4 -31 23 -2 13 1 27 6 30 16 9 171 2 219 -11z m1121
-14 c1 -16 -2 -35 -7 -43 -8 -12 -15 -8 -41 19 -34 36 -34 35 0 49 35 14 45 9
48 -25z m-439 -126 c44 -2 76 -8 78 -14 4 -13 -196 -26 -211 -13 -4 4 -3 24 4
44 l12 37 22 -26 c19 -23 29 -26 95 -28z m564 -258 l2 -285 -93 0 -94 0 6 35
c3 19 6 66 6 103 0 50 3 68 13 65 7 -3 14 -33 17 -84 l5 -79 50 0 50 0 3 241
2 241 -27 13 -28 13 30 13 c59 26 57 34 58 -276z m-363 107 c-4 -5 -23 -10
-41 -10 -38 -2 -46 13 -30 57 l11 27 34 -33 c18 -18 30 -37 26 -41z m104 -91
l36 -35 -36 -11 c-46 -15 -59 -4 -50 44 4 20 8 36 10 36 2 0 20 -15 40 -34z
m2831 -21 l0 -27 -160 0 c-142 0 -160 2 -163 16 -8 39 1 41 164 40 l159 -1 0
-28z m645 -111 c0 -6 -7 -34 -15 -62 -20 -65 -14 -76 34 -66 20 4 99 8 176 9
77 1 149 3 160 6 17 3 20 -1 19 -34 -2 -48 -11 -57 -32 -30 -15 19 -27 23 -87
24 -38 0 -126 -4 -195 -9 -69 -6 -127 -9 -129 -6 -2 2 3 32 13 66 21 74 13 86
-41 70 -21 -6 -78 -12 -127 -13 -73 -3 -91 0 -99 12 -25 39 -7 44 162 44 107
0 161 -4 161 -11z m-1162 -119 l772 0 0 -25 c0 -14 -5 -32 -11 -40 -8 -13 -12
-12 -26 8 l-15 22 -749 0 c-738 0 -748 0 -759 -20 -16 -29 -28 -24 -36 14 -8
44 1 59 29 49 12 -4 370 -8 795 -8z m1416 -147 c25 -20 20 -27 -28 -35 -32 -5
-36 -3 -36 15 0 11 5 33 11 49 10 27 11 27 21 8 6 -11 20 -28 32 -37z m-2306
17 c13 -3 20 -10 17 -15 -4 -6 -89 -10 -211 -10 l-204 0 -12 -25 c-6 -14 -15
-25 -19 -25 -13 0 -30 62 -20 74 9 11 400 12 449 1z m1916 -28 c-2 -51 -12
-57 -36 -24 -18 25 -25 27 -93 27 -72 0 -108 14 -63 25 22 5 148 12 178 10 11
0 15 -11 14 -38z m902 28 c7 -17 -8 -67 -22 -72 -5 -2 -14 7 -19 19 -10 22
-16 23 -145 26 -74 1 -141 5 -149 7 -34 13 11 20 152 26 84 3 158 6 165 7 7 1
15 -5 18 -13z m-319 -145 c40 0 75 -5 78 -11 4 -6 5 -12 4 -13 -2 -2 -50 -6
-106 -8 -113 -5 -114 -5 -96 61 l6 24 21 -26 c20 -25 28 -27 93 -27z m-3009
15 c6 -2 12 -9 12 -15 0 -6 -71 -10 -205 -10 l-205 0 -16 -25 c-9 -14 -20 -23
-24 -20 -11 7 -23 62 -17 72 5 8 432 6 455 -2z m2687 5 c7 -12 -13 -80 -23
-80 -4 0 -12 10 -17 23 -9 19 -19 23 -88 27 -42 3 -77 10 -77 15 0 6 37 13 82
16 46 3 91 6 100 7 9 1 20 -3 23 -8z m897 -2 c5 -15 -12 -78 -21 -78 -4 0 -11
10 -16 23 -9 20 -18 22 -93 25 -60 2 -82 6 -79 15 2 7 35 14 88 18 46 3 92 6
101 7 9 1 18 -4 20 -10z m-412 -113 c0 -8 11 -22 26 -31 30 -20 21 -32 -26
-36 -33 -3 -35 -1 -33 26 1 16 5 36 7 43 7 18 26 17 26 -2z m-3695 -15 l26
-10 -33 -33 -33 -34 -13 30 c-23 51 -3 68 53 47z m3337 -2 c3 -7 0 -27 -5 -44
l-10 -32 -33 34 c-19 18 -34 35 -34 38 0 5 31 12 62 15 9 0 18 -5 20 -11z
m898 -10 c0 -31 -11 -68 -20 -68 -4 0 -12 11 -18 25 -6 14 -18 25 -27 25 -21
0 -19 27 3 33 44 12 62 7 62 -15z m-315 -138 c41 0 76 -4 80 -9 8 -14 -20 -19
-120 -23 -99 -3 -106 1 -85 58 l11 29 21 -27 c18 -26 25 -28 93 -28z m-4026
14 c1 -1 0 -7 -4 -13 -3 -6 -39 -11 -81 -11 -70 0 -75 -2 -86 -25 -6 -14 -14
-25 -18 -25 -9 0 -20 36 -20 67 0 21 3 21 103 16 56 -3 104 -7 106 -9z m3701
-3 c0 -11 -5 -32 -11 -48 l-11 -28 -13 25 c-12 23 -21 25 -91 30 -110 7 -112
28 -2 33 46 1 93 4 106 5 16 1 22 -3 22 -17z m767 -18 c-8 -47 -26 -66 -34
-35 -3 12 -17 29 -32 37 l-26 14 25 10 c14 5 36 10 49 10 22 1 23 -2 18 -36z
m-282 -123 c0 -26 -5 -45 -12 -47 -9 -3 -13 10 -13 47 0 37 4 50 13 48 7 -3
12 -22 12 -48z m-4455 20 c13 -9 12 -13 -8 -28 -22 -17 -23 -23 -20 -127 l3
-110 209 -5 c155 -4 210 -8 214 -17 3 -10 -40 -13 -195 -13 -109 0 -214 -3
-233 -6 l-35 -6 0 161 0 161 25 0 c14 0 32 -5 40 -10z m4097 -26 c-8 -49 -13
-51 -41 -21 -14 15 -30 27 -36 27 -5 0 -10 4 -10 9 0 11 23 18 64 20 27 1 28
0 23 -35z m773 13 c0 -13 -6 -32 -14 -42 -13 -18 -14 -18 -25 3 -6 11 -20 24
-31 27 -41 13 -18 31 43 34 22 1 27 -3 27 -22z m119 -106 c11 -7 12 -17 5 -42
-11 -39 -29 -48 -37 -19 -3 12 -15 24 -26 27 -29 7 -26 19 7 31 35 13 34 13
51 3z m-619 -10 c13 -1 12 -4 -1 -14 -11 -9 -51 -12 -118 -11 -100 1 -128 7
-103 23 11 6 161 8 222 2z m-4894 -126 c9 -23 -10 -90 -25 -90 -16 0 -43 69
-35 90 8 19 53 19 60 0z m5648 0 c6 -16 -12 -75 -23 -75 -4 0 -13 11 -19 25
-6 14 -19 25 -28 25 -23 0 -11 23 17 31 38 11 46 10 53 -6z m-4604 -168 c-4
-5 -23 -10 -41 -10 -38 -2 -46 13 -30 57 l11 27 34 -33 c18 -18 30 -37 26 -41z
m-1181 47 c31 -7 44 -34 16 -34 -9 0 -21 -11 -27 -25 -6 -14 -14 -25 -18 -25
-9 0 -20 37 -20 68 0 24 3 25 49 16z m524 -28 c-4 -56 -12 -63 -36 -33 -22 27
-24 27 -160 29 -189 4 -184 21 8 29 205 7 190 9 188 -25z m5389 22 c3 -7 0
-29 -7 -48 l-12 -34 -17 27 c-10 15 -25 27 -32 27 -23 0 -16 28 9 33 42 8 55
7 59 -5z m-4647 -151 c0 -65 -19 -64 -23 2 -2 40 0 52 10 49 8 -3 13 -22 13
-51z m-1361 13 c8 -8 4 -12 -12 -17 -13 -3 -28 -17 -33 -31 -12 -32 -28 -18
-36 33 l-6 38 38 -6 c21 -3 43 -11 49 -17z m1133 -17 c-9 -50 -24 -63 -36 -30
l-10 27 -207 2 c-153 2 -208 6 -211 15 -4 10 45 13 209 16 117 1 224 3 237 5
22 2 23 -1 18 -35z m4996 -60 c-2 -54 -7 -105 -9 -113 -11 -32 -24 16 -24 87
0 62 -3 74 -20 83 -36 19 -20 36 37 39 21 1 21 -1 16 -96z m-6253 -50 c13 -12
-33 -23 -96 -23 -66 0 -72 -2 -82 -26 -7 -14 -16 -23 -21 -20 -10 7 -23 65
-16 76 5 8 205 1 215 -7z m1410 -2 c0 -5 -7 -12 -16 -15 -34 -13 -94 -3 -94
15 0 5 25 9 55 9 30 0 55 -4 55 -9z m4603 -13 c21 -11 21 -11 2 -19 -28 -11
-67 -10 -85 1 -13 9 -13 11 0 20 20 13 57 13 83 -2z m-148 -128 c0 -26 -5 -45
-12 -47 -9 -3 -13 10 -13 47 0 37 4 50 13 48 7 -3 12 -22 12 -48z m250 26 c12
-13 28 -25 36 -28 22 -8 4 -19 -40 -25 -44 -6 -49 2 -35 55 8 28 12 28 39 -2z
m-6376 -12 c3 -4 0 -9 -7 -11 -34 -12 -43 -35 -40 -103 3 -66 -4 -92 -19 -76
-9 8 -22 186 -15 200 5 9 71 1 81 -10z m6651 -3 c0 -30 -11 -51 -26 -51 -8 0
-14 4 -14 9 0 5 -13 14 -30 20 -36 12 -37 19 -7 31 41 16 77 12 77 -9z m-1276
-7 c33 -13 14 -24 -39 -24 -51 0 -72 12 -42 23 18 8 63 8 81 1z m-144 -135 c0
-36 -4 -49 -12 -47 -14 5 -23 70 -14 95 11 28 26 1 26 -48z m240 36 c9 -24 14
-25 84 -25 42 0 78 -5 81 -11 4 -6 5 -12 4 -13 -2 -2 -50 -6 -106 -9 -113 -6
-116 -4 -93 57 12 32 18 33 30 1z m790 -10 c10 -12 10 -21 2 -40 -12 -26 -27
-32 -37 -14 -4 5 -18 14 -31 19 -33 13 -30 28 9 39 44 13 43 13 57 -4z m-490
-169 c0 -3 -16 -8 -36 -12 -44 -8 -55 5 -41 51 l10 33 33 -34 c19 -18 34 -36
34 -38z m-5926 44 c31 -11 33 -26 6 -35 -19 -6 -20 -15 -20 -180 0 -169 1
-174 23 -190 19 -13 20 -17 7 -25 -8 -5 -26 -10 -40 -10 l-26 0 4 184 c3 105
0 197 -5 213 -17 50 -1 63 51 43z m5522 -5 c8 -19 -9 -68 -24 -73 -7 -2 -12 3
-12 12 0 9 -11 23 -26 32 -26 18 -23 29 11 37 36 9 46 7 51 -8z m-1263 -30
c-3 -10 -1095 -20 -1121 -10 -7 3 -10 9 -7 15 9 14 1131 9 1128 -5z m-1185
-115 c-4 -60 -22 -71 -26 -16 -4 43 2 66 18 66 7 0 10 -19 8 -50z m1270 25
l12 -25 204 0 c127 0 207 -4 211 -10 11 -17 -12 -19 -243 -22 -216 -3 -222 -2
-222 17 0 29 11 65 20 65 4 0 12 -11 18 -25z m1665 5 c3 -11 18 -25 34 -31
l28 -11 -30 -14 c-62 -27 -83 -14 -65 41 13 39 25 45 33 15z m-231 -12 c3 -7
0 -28 -6 -47 l-12 -34 -17 26 c-15 24 -24 26 -94 29 -49 2 -78 7 -80 15 -3 9
20 13 84 16 48 1 95 4 104 5 9 1 19 -4 21 -10z m662 -94 c19 -18 22 -94 4
-112 -7 -7 -31 -12 -54 -12 -50 0 -68 -18 -59 -58 7 -35 -8 -51 -59 -59 -48
-8 -66 9 -66 61 0 53 13 66 67 66 l43 0 0 47 c0 29 6 53 17 65 20 23 85 24
107 2z m-1580 -29 c15 -23 23 -25 91 -25 72 0 109 -14 63 -24 -46 -10 -189
-12 -194 -4 -8 13 5 78 15 78 5 0 16 -11 25 -25z m-620 -3 c3 -5 1 -26 -5 -47
l-11 -38 -21 27 -22 26 -525 3 c-342 1 -525 5 -525 12 0 6 187 12 530 15 292
3 540 6 552 8 12 1 24 -2 27 -6z m1666 -21 c0 -40 -14 -46 -56 -26 -56 26 -42
49 34 54 18 1 22 -4 22 -28z m-362 -47 c13 -4 24 -16 27 -30 3 -13 7 -35 10
-49 9 -40 -33 -75 -89 -75 -50 0 -70 -19 -59 -58 3 -12 -2 -33 -11 -47 -16
-24 -21 -25 -121 -25 -93 0 -105 2 -115 19 -13 25 -13 82 0 116 10 26 11 27
103 25 50 -1 98 -1 105 -1 8 1 12 19 12 56 0 48 3 57 23 65 26 10 83 12 115 4z
m-416 -68 c30 -37 24 -46 -28 -46 -19 0 -24 5 -24 24 0 28 9 56 19 56 3 0 18
-15 33 -34z m-372 0 c0 -8 -5 -27 -11 -43 l-10 -28 -17 22 c-16 22 -23 23
-221 25 -151 2 -205 6 -208 15 -4 10 44 13 204 16 114 1 220 3 236 5 18 1 27
-3 27 -12z m-4648 -335 c-1 -225 -5 -268 -23 -240 -10 16 -12 449 -3 474 19
48 26 -21 26 -234z m6062 243 c11 -4 16 -20 16 -53 0 -54 -12 -71 -53 -71 -44
0 -65 17 -73 57 -6 31 -3 39 16 55 22 18 64 23 94 12z m-1165 -28 c8 -10 8
-21 1 -40 -5 -15 -10 -45 -10 -67 0 -24 -4 -38 -10 -34 -5 3 -10 24 -10 45 0
58 -19 71 -100 68 -38 -2 -72 1 -76 5 -17 16 22 27 76 22 30 -4 66 -2 80 4 34
13 36 13 49 -3z m-4081 -163 c2 -9 -11 -13 -47 -13 -48 0 -68 9 -54 24 12 12
96 2 101 -11z m4098 -59 c30 -72 6 -141 -47 -130 -38 7 -59 -15 -59 -63 0 -20
-5 -42 -12 -49 -9 -9 -76 -12 -239 -12 -125 0 -234 -3 -243 -6 -11 -4 -16 -20
-16 -53 0 -26 -5 -52 -12 -59 -8 -8 -49 -12 -118 -12 -69 0 -110 -4 -118 -12
-7 -7 -12 -31 -12 -54 0 -23 -6 -46 -13 -52 -7 -6 -62 -13 -123 -14 l-109 -3
-3 -46 c-5 -76 -12 -78 -213 -81 l-174 -3 -3 -47 c-2 -26 -10 -52 -18 -59 -10
-8 -50 -14 -112 -14 -88 -2 -101 1 -135 23 -26 18 -36 30 -32 41 4 9 9 28 12
43 3 15 11 32 17 37 7 6 64 12 127 13 l114 3 0 46 c0 78 2 79 206 79 l179 0 0
48 c0 75 4 77 127 77 60 1 114 4 120 8 7 5 12 26 11 52 -1 25 3 50 10 57 9 9
48 13 125 13 l112 0 5 52 c3 29 10 57 16 63 5 5 87 11 189 12 l180 3 3 50 c2
27 8 55 14 62 7 9 39 13 92 14 44 0 90 4 101 8 26 11 34 5 51 -35z m642 0 c16
-11 22 -25 22 -54 0 -50 22 -73 62 -65 42 10 68 -17 68 -70 0 -52 -13 -65 -65
-65 -52 0 -65 -13 -65 -65 0 -52 -13 -65 -66 -65 -53 0 -75 20 -72 65 3 44
-16 65 -61 65 -49 0 -62 11 -68 57 -7 53 23 88 67 78 21 -5 34 -1 49 14 15 15
19 28 15 50 -12 57 61 92 114 55z m-4898 -189 c0 -167 -7 -214 -24 -169 -3 9
-6 85 -6 169 0 84 3 160 6 169 17 45 24 -2 24 -169z m242 30 c3 -134 4 -140
26 -150 30 -13 28 -21 -8 -34 -54 -18 -55 -15 -52 157 3 165 7 191 22 176 5
-5 11 -72 12 -149z m-983 -141 c3 -3 -4 -13 -16 -21 -18 -12 -23 -25 -23 -59
0 -23 -5 -46 -11 -49 -15 -10 -16 -8 -23 74 l-7 74 36 -6 c21 -3 40 -9 44 -13z
m2301 -14 c33 -22 -38 -39 -85 -21 -19 8 -19 8 0 19 25 14 65 15 85 2z m-2029
-50 c15 -8 19 -21 19 -58 0 -59 11 -71 59 -65 54 7 71 -13 71 -86 0 -70 -11
-83 -77 -85 l-48 -1 -3 -50 c-2 -27 -8 -55 -14 -62 -6 -8 -34 -13 -73 -13 -39
0 -67 5 -73 13 -6 7 -12 35 -14 62 l-3 50 -110 0 c-60 0 -116 4 -122 8 -7 4
-18 27 -24 50 l-11 42 -23 -29 -24 -30 -6 27 c-11 41 0 60 25 47 24 -13 59 7
91 51 12 18 25 26 32 22 15 -10 148 -22 164 -16 8 3 13 24 13 52 0 49 6 65 30
74 26 9 100 8 121 -3z m837 -114 c3 -73 4 -77 30 -87 26 -10 26 -11 8 -25 -11
-8 -33 -14 -49 -14 -29 0 -29 1 -23 38 3 20 6 68 6 105 0 51 3 68 13 65 8 -3
13 -31 15 -82z m1047 64 c9 -28 -4 -82 -18 -77 -13 4 -22 60 -13 83 8 20 24
17 31 -6z m235 6 c0 -20 23 -26 93 -26 56 0 99 -12 87 -23 -3 -2 -51 -7 -108
-10 -113 -6 -121 -2 -103 46 11 28 31 37 31 13z m-1515 -101 c0 -104 -2 -107
-62 -84 l-28 11 28 14 c23 13 27 21 27 59 0 37 -4 47 -26 62 -24 15 -25 17 -8
24 11 4 30 8 44 8 l25 1 0 -95z m1775 -30 l10 -25 139 0 c88 0 142 -4 146 -11
4 -6 5 -12 4 -14 -2 -1 -79 -5 -171 -7 -184 -4 -182 -5 -158 56 12 32 18 33
30 1z m-366 -39 c-1 -20 -3 -39 -6 -41 -3 -3 -22 10 -42 30 l-37 34 33 10 c47
13 53 9 52 -33z m2463 -69 c13 -12 17 -38 18 -109 2 -114 -6 -128 -76 -128
-56 0 -69 -15 -69 -79 0 -51 -22 -75 -63 -67 -45 9 -57 24 -57 72 0 49 -17 64
-72 64 -45 0 -58 15 -58 66 0 50 27 76 69 68 39 -7 54 9 60 63 8 61 22 68 140
67 71 -1 96 -5 108 -17z m-3723 -3 c10 -9 15 -31 14 -56 -2 -47 22 -73 60 -63
12 3 31 1 42 -5 18 -10 20 -21 20 -113 0 -124 6 -135 75 -139 l50 -3 5 -52 c3
-28 9 -55 13 -60 5 -4 32 -10 60 -13 l52 -5 3 -45 c4 -58 25 -80 72 -80 45 0
65 -20 56 -55 -9 -36 23 -65 73 -65 22 0 44 -6 51 -15 9 -11 12 -116 11 -434
-2 -374 0 -420 14 -435 23 -23 206 -23 229 0 14 13 16 59 17 337 1 177 1 336
0 353 -4 62 6 64 254 64 193 0 226 -2 240 -16 10 -11 14 -26 10 -43 -3 -15 0
-34 8 -44 12 -17 42 -18 507 -18 458 0 495 1 507 17 17 24 16 55 -3 82 -11 16
-25 22 -54 22 -50 0 -72 22 -65 64 11 54 -13 65 -140 68 l-110 3 -5 53 c-6 60
-21 75 -67 68 -45 -6 -62 11 -65 69 l-3 50 -53 5 c-61 6 -72 18 -72 75 0 50
-14 65 -60 65 -20 0 -41 5 -48 12 -18 18 -16 212 2 227 16 13 191 12 219 -1
12 -6 17 -21 17 -51 0 -24 5 -48 12 -55 8 -8 48 -12 114 -12 119 0 139 -10
128 -64 -12 -65 -9 -66 326 -66 293 0 300 0 310 -21 7 -11 9 -31 6 -43 -3 -12
1 -32 10 -44 14 -20 24 -22 117 -22 56 0 107 -4 114 -8 21 -14 26 -60 9 -87
l-17 -25 -163 6 -163 7 -16 -24 c-15 -21 -17 -72 -17 -506 0 -424 2 -483 16
-497 22 -23 206 -23 228 0 14 13 16 50 16 249 0 221 1 235 19 245 29 15 77 12
95 -6 9 -8 16 -30 16 -49 0 -56 8 -65 55 -65 56 0 75 -19 73 -71 -1 -26 4 -44
13 -50 8 -5 62 -9 121 -9 95 0 108 -2 118 -19 5 -11 7 -32 4 -48 -10 -53 10
-64 124 -66 61 -2 106 -7 113 -14 14 -14 19 -189 7 -215 -6 -13 -21 -18 -53
-18 -36 0 -48 -5 -61 -25 -9 -14 -13 -33 -9 -44 12 -37 -11 -61 -58 -61 -54 0
-67 -13 -67 -65 0 -23 -5 -46 -12 -53 -9 -9 -90 -12 -304 -12 -253 0 -295 -2
-308 -16 -12 -12 -16 -37 -16 -112 0 -53 5 -104 10 -112 7 -11 37 -16 127 -20
l118 -5 5 -52 c3 -28 8 -55 12 -58 4 -4 81 -8 173 -10 110 -2 171 -7 181 -15
14 -13 19 -65 8 -94 -4 -11 -19 -16 -48 -16 -52 0 -66 -13 -66 -64 0 -58 -11
-70 -72 -76 -52 -5 -53 -5 -56 -40 -6 -76 -9 -80 -56 -80 -73 0 -76 -8 -76
-190 0 -87 3 -165 6 -174 4 -11 19 -16 46 -16 61 0 78 -14 78 -63 0 -75 16
-71 -327 -77 l-308 -5 -3 -47 c-5 -81 12 -78 -459 -78 -405 0 -413 0 -434 21
-15 15 -19 28 -15 45 4 13 2 33 -4 44 -10 20 -23 20 -496 20 -315 0 -492 4
-505 10 -14 8 -19 21 -19 53 0 24 -5 48 -12 55 -8 8 -49 12 -120 12 -120 0
-128 5 -128 72 0 53 -12 58 -132 58 -87 0 -109 3 -116 16 -5 8 -7 84 -4 168 5
179 1 196 -56 196 -79 0 -73 -79 -72 895 0 524 -4 876 -9 885 -6 8 -32 17 -63
20 l-53 5 0 434 c0 347 3 437 13 448 18 18 77 16 96 -3z m-284 -145 c0 -116
-3 -150 -12 -147 -9 3 -14 40 -16 129 -3 129 1 169 18 169 6 0 10 -59 10 -151z
m534 97 c29 -8 9 -25 -37 -33 -35 -5 -37 -4 -37 21 0 15 5 37 11 48 11 21 12
21 27 -5 9 -14 25 -28 36 -31z m1826 2 c25 -2 45 -7 45 -13 0 -13 -137 -27
-149 -15 -4 4 -3 25 4 45 l12 37 22 -25 c16 -20 32 -27 66 -29z m-3362 16 c34
-11 -7 -24 -73 -24 -68 0 -76 -2 -91 -25 -9 -14 -20 -23 -24 -20 -11 7 -23 62
-16 73 5 8 178 5 204 -4z m2675 -28 c-2 -22 -5 -41 -7 -44 -3 -2 -21 12 -41
32 -23 24 -31 38 -23 40 7 3 20 7 28 10 34 11 45 1 43 -38z m-1051 -78 c6 -17
-1 -38 -13 -38 -5 0 -9 11 -9 25 0 26 14 34 22 13z m-1897 -18 l27 -10 -32
-30 c-42 -39 -42 -39 -52 -5 -14 53 2 66 57 45z m3079 2 c3 -5 2 -37 -2 -72
-8 -76 -32 -96 -32 -27 0 38 -5 49 -27 65 l-28 21 25 10 c31 12 57 13 64 3z
m-1141 -69 c35 -7 51 -36 43 -78 -8 -39 12 -60 47 -51 12 3 254 6 536 6 l513
1 24 -32 c28 -39 31 -78 7 -108 l-18 -22 -515 5 c-283 2 -529 5 -547 5 -46 1
-63 24 -63 82 l0 49 -55 0 c-45 0 -56 4 -66 21 -22 43 16 147 49 134 9 -3 30
-9 45 -12z m-2044 -68 c1 -2 0 -8 -4 -14 -4 -7 -58 -11 -145 -11 l-139 0 -15
-27 -14 -28 -11 28 c-25 64 -28 63 157 59 92 -2 169 -6 171 -7z m516 -25 c3
-5 -5 -12 -18 -15 -35 -9 -80 -2 -85 13 -5 15 93 17 103 2z m879 -42 c8 -13
18 -40 21 -61 10 -53 -13 -78 -72 -75 -24 1 -46 -2 -50 -6 -4 -4 -6 -56 -5
-115 2 -79 -1 -111 -10 -118 -23 -18 -127 -27 -359 -28 -124 -1 -233 -5 -243
-8 -11 -5 -16 -19 -16 -50 0 -28 -6 -49 -16 -57 -18 -16 -202 -21 -221 -7 -18
13 -26 72 -14 96 9 17 21 21 56 21 54 0 73 23 73 87 -1 56 25 97 52 83 12 -7
117 -9 287 -8 l268 3 0 48 c0 59 19 77 82 77 l43 0 0 43 c0 51 15 74 55 86 46
14 53 13 69 -11z m-1031 -61 c12 -38 -6 -59 -39 -46 -28 10 -560 10 -853 0
-100 -3 -187 -3 -193 0 -5 4 -8 17 -6 30 l3 24 180 -4 c99 -1 187 -6 195 -10
8 -3 162 -5 342 -3 316 3 327 4 333 23 9 26 27 19 38 -14z m235 -41 c2 -45 -1
-73 -10 -84 -11 -13 -14 -5 -19 54 -7 76 -2 107 15 101 6 -2 12 -33 14 -71z"/>
<path d="M6149 3426 c-8 -16 -8 -37 -2 -63 8 -37 10 -38 57 -41 26 -2 54 2 61
8 23 19 29 68 11 95 -14 21 -24 25 -66 25 -44 0 -52 -3 -61 -24z"/>
<path d="M3596 2544 c-19 -18 -21 -85 -4 -102 9 -9 262 -12 1079 -12 962 0
1068 2 1080 16 19 23 15 85 -7 101 -14 10 -221 13 -1075 13 -948 0 -1059 -2
-1073 -16z"/>
<path d="M1287 8562 c-19 -21 -22 -54 -7 -83 8 -14 21 -19 53 -19 52 0 67 13
67 60 0 20 -5 41 -12 48 -19 19 -82 15 -101 -6z"/>
</g>
</svg>
